<svg width="113" height="52" viewBox="0 0 113 52" fill="none" xmlns="http://www.w3.org/2000/svg">
<path d="M1.43 23V1.07H10.16C14.48 1.07 17.12 3.32 17.12 6.98C17.12 9.41 16.04 11.15 13.97 12.02C16.28 12.77 17.45 14.51 17.45 17.06C17.45 20.81 14.84 23 10.31 23H1.43ZM9.83 4.46H5.27V10.43H9.92C12.02 10.43 13.19 9.32 13.19 7.37C13.19 5.48 11.99 4.46 9.83 4.46ZM10.16 13.67H5.27V19.61H10.16C12.32 19.61 13.52 18.56 13.52 16.58C13.52 14.72 12.29 13.67 10.16 13.67ZM32.791 23H19.171V1.07H32.791V4.61H23.011V10.25H31.771V13.64H23.011V19.46H32.791V23ZM40.4342 14.36L33.0242 1.07H37.3142L41.6342 9.05C41.9642 9.65 42.1742 10.13 42.4142 10.67C42.6842 10.13 42.8042 9.77 43.1942 9.05L47.4842 1.07H51.6542L44.2742 14.36V23H40.4342V14.36ZM70.913 12.02C70.913 18.68 66.533 23.36 60.233 23.36C53.963 23.36 49.643 18.71 49.643 12.02C49.643 5.36 53.993 0.679999 60.263 0.679999C66.533 0.679999 70.913 5.33 70.913 12.02ZM66.863 12.02C66.863 7.34 64.283 4.37 60.263 4.37C56.243 4.37 53.663 7.34 53.663 12.02C53.663 16.7 56.243 19.67 60.263 19.67C64.283 19.67 66.863 16.64 66.863 12.02ZM76.467 23H72.687V1.07H76.497L86.787 16.61V1.07H90.567V23H86.787L76.467 7.46V23ZM101.511 23H93.6214V1.07H101.301C107.781 1.07 112.251 5.54 112.251 12.08C112.251 18.53 107.871 23 101.511 23ZM100.941 4.61H97.4614V19.46H101.151C105.531 19.46 108.201 16.64 108.201 12.08C108.201 7.43 105.471 4.61 100.941 4.61ZM4.43 31.47H0.05V29.52H6.5V51H4.43V31.47ZM8.86953 40.26C8.86953 33.6 12.1395 29.1 17.4795 29.1C22.7895 29.1 26.0595 33.6 26.0595 40.26C26.0595 46.95 22.8495 51.39 17.4795 51.39C12.0795 51.39 8.86953 46.95 8.86953 40.26ZM10.9995 40.26C10.9995 45.84 13.3695 49.44 17.4795 49.44C21.5895 49.44 23.9595 45.84 23.9595 40.26C23.9595 34.65 21.5895 31.08 17.4795 31.08C13.3695 31.08 10.9995 34.65 10.9995 40.26ZM27.548 40.26C27.548 33.6 30.818 29.1 36.158 29.1C41.468 29.1 44.738 33.6 44.738 40.26C44.738 46.95 41.528 51.39 36.158 51.39C30.758 51.39 27.548 46.95 27.548 40.26ZM29.678 40.26C29.678 45.84 32.048 49.44 36.158 49.44C40.268 49.44 42.638 45.84 42.638 40.26C42.638 34.65 40.268 31.08 36.158 31.08C32.048 31.08 29.678 34.65 29.678 40.26Z" fill="black"/>
</svg>
