<svg width="17" height="18" viewBox="0 0 17 18" fill="none" xmlns="http://www.w3.org/2000/svg">
<path d="M16.2563 10.4875C16.2005 10.5294 16.1369 10.5599 16.0694 10.5772C16.0018 10.5945 15.9315 10.5983 15.8624 10.5884C15.7933 10.5786 15.7269 10.5552 15.6669 10.5197C15.6068 10.4841 15.5544 10.4371 15.5125 10.3813C15.1923 9.95088 14.7755 9.60167 14.2957 9.36176C13.8159 9.12186 13.2865 8.99796 12.75 9.00004C12.6456 9.00003 12.5434 8.96922 12.4564 8.91146C12.3693 8.8537 12.3012 8.77156 12.2606 8.67531C12.233 8.60995 12.2188 8.53973 12.2188 8.46879C12.2188 8.39785 12.233 8.32762 12.2606 8.26226C12.3012 8.16601 12.3693 8.08387 12.4564 8.02611C12.5434 7.96836 12.6456 7.93755 12.75 7.93754C13.0481 7.93751 13.3402 7.85389 13.5931 7.69618C13.8461 7.53846 14.0497 7.31298 14.1809 7.04533C14.3121 6.77768 14.3657 6.4786 14.3354 6.18206C14.3052 5.88552 14.1924 5.60341 14.0098 5.36776C13.8273 5.13212 13.5823 4.95239 13.3027 4.84899C13.0231 4.7456 12.7202 4.72267 12.4282 4.78283C12.1363 4.84299 11.8671 4.98381 11.6511 5.18931C11.4352 5.3948 11.2813 5.65674 11.2067 5.94535C11.1893 6.01293 11.1587 6.07642 11.1167 6.13219C11.0748 6.18795 11.0222 6.2349 10.9621 6.27036C10.902 6.30582 10.8354 6.32908 10.7663 6.33884C10.6972 6.34858 10.6269 6.34463 10.5593 6.32719C10.4917 6.30974 10.4282 6.27916 10.3724 6.23718C10.3167 6.19521 10.2697 6.14266 10.2343 6.08254C10.1988 6.02241 10.1755 5.9559 10.1658 5.88678C10.156 5.81767 10.16 5.74731 10.1774 5.67972C10.2809 5.2795 10.4763 4.90895 10.7481 4.59754C11.02 4.28613 11.3607 4.04246 11.7433 3.88593C12.1259 3.72939 12.5398 3.66431 12.9519 3.69586C13.3641 3.72741 13.7632 3.85472 14.1175 4.06765C14.4718 4.28059 14.7715 4.57328 14.9928 4.92244C15.2141 5.2716 15.3508 5.66758 15.3921 6.07888C15.4335 6.49018 15.3782 6.90544 15.2308 7.29164C15.0834 7.67783 14.8479 8.02428 14.543 8.30344C15.2654 8.61621 15.8933 9.11254 16.3645 9.74312C16.4064 9.79908 16.4368 9.86274 16.454 9.93046C16.4712 9.99818 16.4749 10.0686 16.4648 10.1378C16.4548 10.2069 16.4312 10.2734 16.3954 10.3334C16.3596 10.3935 16.3123 10.4458 16.2563 10.4875ZM12.6783 14.5782C12.7167 14.6386 12.7425 14.7062 12.7542 14.7769C12.7658 14.8476 12.763 14.92 12.746 14.9896C12.7289 15.0591 12.698 15.1246 12.655 15.1819C12.612 15.2392 12.5579 15.2872 12.4958 15.3231C12.4338 15.359 12.3652 15.3819 12.294 15.3905C12.2229 15.3992 12.1508 15.3933 12.082 15.3734C12.0131 15.3534 11.9491 15.3197 11.8936 15.2744C11.8382 15.229 11.7924 15.1729 11.7592 15.1094C11.4246 14.5427 10.948 14.0731 10.3764 13.7469C9.80486 13.4207 9.15812 13.2491 8.50002 13.2491C7.84191 13.2491 7.19518 13.4207 6.62363 13.7469C6.05207 14.0731 5.57546 14.5427 5.2408 15.1094C5.20759 15.1729 5.16188 15.229 5.10642 15.2744C5.05096 15.3197 4.9869 15.3534 4.91809 15.3734C4.84927 15.3933 4.77713 15.3992 4.70601 15.3905C4.63488 15.3819 4.56624 15.359 4.50421 15.3231C4.44217 15.2872 4.38804 15.2392 4.34505 15.1819C4.30206 15.1246 4.27112 15.0591 4.25407 14.9896C4.23703 14.92 4.23423 14.8476 4.24586 14.7769C4.25749 14.7062 4.2833 14.6386 4.32174 14.5782C4.83678 13.6932 5.6221 12.9968 6.56228 12.5913C6.03324 12.1862 5.64444 11.6256 5.45051 10.9881C5.25659 10.3507 5.2673 9.66848 5.48113 9.03743C5.69497 8.40638 6.10119 7.8582 6.64268 7.46995C7.18418 7.08171 7.83372 6.87291 8.50002 6.87291C9.16632 6.87291 9.81586 7.08171 10.3574 7.46995C10.8988 7.8582 11.3051 8.40638 11.5189 9.03743C11.7327 9.66848 11.7435 10.3507 11.5495 10.9881C11.3556 11.6256 10.9668 12.1862 10.4378 12.5913C11.3779 12.9968 12.1633 13.6932 12.6783 14.5782ZM8.50002 12.1875C8.9203 12.1875 9.33115 12.0629 9.6806 11.8294C10.0301 11.5959 10.3024 11.264 10.4633 10.8757C10.6241 10.4874 10.6662 10.0602 10.5842 9.64797C10.5022 9.23576 10.2998 8.85712 10.0026 8.55993C9.70543 8.26275 9.32679 8.06036 8.91459 7.97837C8.50238 7.89637 8.07511 7.93846 7.68682 8.09929C7.29852 8.26013 6.96664 8.5325 6.73315 8.88195C6.49965 9.2314 6.37502 9.64225 6.37502 10.0625C6.37502 10.6261 6.5989 11.1666 6.99742 11.5651C7.39593 11.9637 7.93643 12.1875 8.50002 12.1875ZM4.78127 8.46879C4.78127 8.32789 4.7253 8.19277 4.62567 8.09314C4.52604 7.99351 4.39091 7.93754 4.25002 7.93754C3.95194 7.93751 3.65984 7.85389 3.4069 7.69618C3.15397 7.53846 2.95033 7.31298 2.81912 7.04533C2.68791 6.77768 2.63439 6.4786 2.66463 6.18206C2.69488 5.88552 2.80768 5.60341 2.99023 5.36776C3.17278 5.13212 3.41775 4.95239 3.69732 4.84899C3.97689 4.7456 4.27986 4.72267 4.5718 4.78283C4.86375 4.84299 5.13297 4.98381 5.34889 5.18931C5.56482 5.3948 5.71878 5.65674 5.7933 5.94535C5.82852 6.08184 5.91653 6.19875 6.03795 6.27036C6.15937 6.34197 6.30427 6.36241 6.44076 6.32719C6.57725 6.29196 6.69416 6.20396 6.76577 6.08254C6.83738 5.96111 6.85782 5.81622 6.8226 5.67972C6.71916 5.2795 6.52375 4.90895 6.25191 4.59754C5.98006 4.28613 5.63929 4.04246 5.25671 3.88593C4.87412 3.72939 4.46028 3.66431 4.04812 3.69586C3.63595 3.72741 3.23684 3.85472 2.88253 4.06765C2.52823 4.28059 2.22851 4.57328 2.00723 4.92244C1.78595 5.2716 1.64921 5.66758 1.60789 6.07888C1.56658 6.49018 1.62183 6.90544 1.76924 7.29164C1.91666 7.67783 2.15217 8.02428 2.45705 8.30344C1.7354 8.6165 1.10815 9.11281 0.637518 9.74312C0.552893 9.85584 0.516509 9.99756 0.536373 10.1371C0.556236 10.2766 0.630719 10.4026 0.743436 10.4872C0.856153 10.5718 0.997871 10.6082 1.13741 10.5884C1.27696 10.5685 1.40289 10.494 1.48752 10.3813C1.80772 9.95088 2.2245 9.60167 2.70432 9.36176C3.18413 9.12186 3.71357 8.99796 4.25002 9.00004C4.39091 9.00004 4.52604 8.94407 4.62567 8.84444C4.7253 8.74481 4.78127 8.60968 4.78127 8.46879Z" fill="black" fill-opacity="0.65"/>
</svg>
