<svg width="17" height="18" viewBox="0 0 17 18" fill="none" xmlns="http://www.w3.org/2000/svg">
<path d="M11.9531 10.0625H10.625V7.9375H11.9531C12.4259 7.9375 12.8882 7.79729 13.2813 7.53461C13.6744 7.27192 13.9808 6.89856 14.1618 6.46173C14.3427 6.0249 14.3901 5.54422 14.2978 5.08049C14.2056 4.61675 13.9779 4.19078 13.6436 3.85645C13.3092 3.52211 12.8833 3.29443 12.4195 3.20219C11.9558 3.10994 11.4751 3.15729 11.0383 3.33823C10.6014 3.51917 10.2281 3.82558 9.96539 4.21872C9.70271 4.61185 9.5625 5.07406 9.5625 5.54688V6.875H7.4375V5.54688C7.4375 5.07406 7.29729 4.61185 7.03461 4.21872C6.77192 3.82558 6.39856 3.51917 5.96173 3.33823C5.5249 3.15729 5.04422 3.10994 4.58049 3.20219C4.11675 3.29443 3.69078 3.52211 3.35645 3.85645C3.02211 4.19078 2.79443 4.61675 2.70219 5.08049C2.60994 5.54422 2.65729 6.0249 2.83823 6.46173C3.01917 6.89856 3.32558 7.27192 3.71872 7.53461C4.11185 7.79729 4.57406 7.9375 5.04688 7.9375H6.375V10.0625H5.04688C4.57406 10.0625 4.11185 10.2027 3.71872 10.4654C3.32558 10.7281 3.01917 11.1014 2.83823 11.5383C2.65729 11.9751 2.60994 12.4558 2.70219 12.9195C2.79443 13.3833 3.02211 13.8092 3.35645 14.1436C3.69078 14.4779 4.11675 14.7056 4.58049 14.7978C5.04422 14.8901 5.5249 14.8427 5.96173 14.6618C6.39856 14.4808 6.77192 14.1744 7.03461 13.7813C7.29729 13.3882 7.4375 12.9259 7.4375 12.4531V11.125H9.5625V12.4531C9.5625 12.9259 9.70271 13.3882 9.96539 13.7813C10.2281 14.1744 10.6014 14.4808 11.0383 14.6618C11.4751 14.8427 11.9558 14.8901 12.4195 14.7978C12.8833 14.7056 13.3092 14.4779 13.6436 14.1436C13.9779 13.8092 14.2056 13.3833 14.2978 12.9195C14.3901 12.4558 14.3427 11.9751 14.1618 11.5383C13.9808 11.1014 13.6744 10.7281 13.2813 10.4654C12.8882 10.2027 12.4259 10.0625 11.9531 10.0625ZM10.625 5.54688C10.625 5.2842 10.7029 5.02742 10.8488 4.80901C10.9948 4.5906 11.2022 4.42037 11.4449 4.31985C11.6876 4.21933 11.9546 4.19302 12.2122 4.24427C12.4699 4.29552 12.7065 4.42201 12.8923 4.60775C13.078 4.79349 13.2045 5.03014 13.2557 5.28777C13.307 5.5454 13.2807 5.81244 13.1802 6.05513C13.0796 6.29781 12.9094 6.50524 12.691 6.65117C12.4726 6.79711 12.2158 6.875 11.9531 6.875H10.625V5.54688ZM3.71875 5.54688C3.71875 5.19464 3.85868 4.85682 4.10775 4.60775C4.35682 4.35868 4.69464 4.21875 5.04688 4.21875C5.39912 4.21875 5.73693 4.35868 5.986 4.60775C6.23507 4.85682 6.375 5.19464 6.375 5.54688V6.875H5.04688C4.69464 6.875 4.35682 6.73507 4.10775 6.486C3.85868 6.23693 3.71875 5.89912 3.71875 5.54688ZM6.375 12.4531C6.375 12.7158 6.29711 12.9726 6.15117 13.191C6.00524 13.4094 5.79781 13.5796 5.55513 13.6802C5.31244 13.7807 5.0454 13.807 4.78777 13.7557C4.53014 13.7045 4.29349 13.578 4.10775 13.3923C3.92201 13.2065 3.79552 12.9699 3.74427 12.7122C3.69302 12.4546 3.71933 12.1876 3.81985 11.9449C3.92037 11.7022 4.0906 11.4948 4.30901 11.3488C4.52742 11.2029 4.7842 11.125 5.04688 11.125H6.375V12.4531ZM7.4375 7.9375H9.5625V10.0625H7.4375V7.9375ZM11.9531 13.7813C11.6009 13.7813 11.2631 13.6413 11.014 13.3923C10.7649 13.1432 10.625 12.8054 10.625 12.4531V11.125H11.9531C12.3054 11.125 12.6432 11.2649 12.8923 11.514C13.1413 11.7631 13.2813 12.1009 13.2813 12.4531C13.2813 12.8054 13.1413 13.1432 12.8923 13.3923C12.6432 13.6413 12.3054 13.7813 11.9531 13.7813Z" fill="black" fill-opacity="0.65"/>
</svg>
