<svg width="17" height="18" viewBox="0 0 17 18" fill="none" xmlns="http://www.w3.org/2000/svg">
<path d="M12.6172 13.2719C12.6637 13.3239 12.6996 13.3846 12.7227 13.4505C12.7458 13.5163 12.7556 13.5861 12.7518 13.6558C12.7479 13.7255 12.7303 13.7937 12.7 13.8566C12.6698 13.9195 12.6274 13.9758 12.5754 14.0223C11.8447 14.6766 10.9472 15.1158 9.98234 15.2914C9.01743 15.4669 8.02276 15.3719 7.10851 15.017C6.19426 14.662 5.39612 14.0608 4.80251 13.2801C4.2089 12.4994 3.84299 11.5696 3.74531 10.5938H2.65625C2.51535 10.5938 2.38023 10.5378 2.2806 10.4382C2.18097 10.3385 2.125 10.2034 2.125 10.0625C2.125 9.92163 2.18097 9.7865 2.2806 9.68687C2.38023 9.58724 2.51535 9.53127 2.65625 9.53127H3.71875V8.46877H2.65625C2.51535 8.46877 2.38023 8.4128 2.2806 8.31317C2.18097 8.21355 2.125 8.07842 2.125 7.93752C2.125 7.79663 2.18097 7.6615 2.2806 7.56187C2.38023 7.46225 2.51535 7.40627 2.65625 7.40627H3.74531C3.84326 6.43078 4.20923 5.50141 4.80272 4.72106C5.39622 3.94071 6.19407 3.3398 7.10797 2.98487C8.02186 2.62994 9.01615 2.53483 9.98077 2.71006C10.9454 2.88529 11.8427 3.32404 12.5734 3.97772C12.6784 4.07177 12.7418 4.2037 12.7496 4.34449C12.7574 4.48527 12.7089 4.62339 12.6149 4.72844C12.5208 4.8335 12.3889 4.89689 12.2481 4.90467C12.1073 4.91246 11.9692 4.86399 11.8641 4.76995C11.2863 4.25363 10.5784 3.9051 9.81684 3.76206C9.05529 3.61901 8.26912 3.68689 7.54336 3.95835C6.81759 4.22981 6.17985 4.69452 5.69911 5.30223C5.21836 5.90994 4.91291 6.63752 4.81578 7.40627H9.03125C9.17215 7.40627 9.30727 7.46225 9.4069 7.56187C9.50653 7.6615 9.5625 7.79663 9.5625 7.93752C9.5625 8.07842 9.50653 8.21355 9.4069 8.31317C9.30727 8.4128 9.17215 8.46877 9.03125 8.46877H4.78125V9.53127H7.96875C8.10965 9.53127 8.24477 9.58724 8.3444 9.68687C8.44403 9.7865 8.5 9.92163 8.5 10.0625C8.5 10.2034 8.44403 10.3385 8.3444 10.4382C8.24477 10.5378 8.10965 10.5938 7.96875 10.5938H4.81578C4.91281 11.3626 5.21819 12.0902 5.69889 12.698C6.17959 13.3058 6.81732 13.7706 7.5431 14.0422C8.26888 14.3137 9.05509 14.3816 9.8167 14.2386C10.5783 14.0956 11.2863 13.7471 11.8641 13.2308C11.9162 13.1838 11.977 13.1475 12.0431 13.1242C12.1092 13.1008 12.1792 13.0907 12.2492 13.0945C12.3192 13.0984 12.3878 13.116 12.4509 13.1465C12.5141 13.1769 12.5706 13.2196 12.6172 13.2719Z" fill="white" fill-opacity="0.65"/>
</svg>
