<svg width="17" height="18" viewBox="0 0 17 18" fill="none" xmlns="http://www.w3.org/2000/svg">
<path d="M14.699 7.41356C14.5601 7.43682 14.436 7.51431 14.3542 7.62901C14.2724 7.74371 14.2395 7.88621 14.2627 8.02516C14.3167 8.34731 14.3438 8.67338 14.3438 9.00001C14.345 10.4305 13.8192 11.8114 12.8669 12.8788C12.2744 12.0202 11.4413 11.356 10.4723 10.9696C10.9928 10.5597 11.3726 9.99768 11.5589 9.36185C11.7452 8.72602 11.7287 8.04794 11.5118 7.42189C11.2949 6.79585 10.8882 6.25297 10.3484 5.86875C9.80866 5.48452 9.16257 5.27806 8.5 5.27806C7.83744 5.27806 7.19134 5.48452 6.65156 5.86875C6.11178 6.25297 5.70514 6.79585 5.4882 7.42189C5.27127 8.04794 5.2548 8.72602 5.44111 9.36185C5.62742 9.99768 6.00723 10.5597 6.52774 10.9696C5.55875 11.356 4.72562 12.0202 4.13313 12.8788C3.38587 12.0367 2.89775 10.9968 2.72747 9.8839C2.55718 8.77104 2.71198 7.63269 3.17325 6.60571C3.63452 5.57873 4.38261 4.70685 5.32759 4.09491C6.27257 3.48297 7.37419 3.15702 8.5 3.15626C8.82663 3.15621 9.1527 3.1833 9.47485 3.23727C9.61318 3.2591 9.75453 3.22542 9.86816 3.14357C9.98179 3.06171 10.0585 2.9383 10.0816 2.80018C10.1047 2.66205 10.0724 2.52039 9.99156 2.40601C9.91076 2.29162 9.78806 2.21377 9.65016 2.18938C8.20744 1.94668 6.72492 2.16875 5.41665 2.82355C4.10838 3.47834 3.04205 4.53196 2.37162 5.83229C1.7012 7.13263 1.46137 8.61238 1.68677 10.0579C1.91217 11.5034 2.59113 12.8399 3.62562 13.8744C4.6601 14.9089 5.99659 15.5878 7.44211 15.8132C8.88763 16.0386 10.3674 15.7988 11.6677 15.1284C12.968 14.458 14.0217 13.3916 14.6765 12.0834C15.3313 10.7751 15.5533 9.29257 15.3106 7.84985C15.2874 7.7109 15.2099 7.58687 15.0952 7.50505C14.9805 7.42323 14.838 7.39032 14.699 7.41356ZM6.375 8.46876C6.375 8.04847 6.49963 7.63763 6.73313 7.28817C6.96663 6.93872 7.29851 6.66635 7.6868 6.50551C8.07509 6.34468 8.50236 6.3026 8.91457 6.38459C9.32678 6.46658 9.70542 6.66897 10.0026 6.96616C10.2998 7.26334 10.5022 7.64198 10.5842 8.05419C10.6662 8.4664 10.6241 8.89367 10.4632 9.28196C10.3024 9.67025 10.03 10.0021 9.68059 10.2356C9.33113 10.4691 8.92029 10.5938 8.5 10.5938C7.93642 10.5938 7.39592 10.3699 6.9974 9.97136C6.59889 9.57284 6.375 9.03234 6.375 8.46876ZM4.91938 13.6152C5.30369 13.0142 5.83313 12.5195 6.45889 12.1769C7.08464 11.8343 7.78658 11.6547 8.5 11.6547C9.21342 11.6547 9.91536 11.8343 10.5411 12.1769C11.1669 12.5195 11.6963 13.0142 12.0806 13.6152C11.0569 14.4114 9.79693 14.8437 8.5 14.8437C7.20307 14.8437 5.94314 14.4114 4.91938 13.6152ZM15.7821 3.53212L13.6571 5.65712C13.6078 5.70651 13.5492 5.7457 13.4847 5.77243C13.4202 5.79916 13.3511 5.81293 13.2813 5.81293C13.2114 5.81293 13.1423 5.79916 13.0778 5.77243C13.0133 5.7457 12.9547 5.70651 12.9054 5.65712L11.8429 4.59462C11.7935 4.54526 11.7544 4.48666 11.7277 4.42217C11.701 4.35768 11.6872 4.28856 11.6872 4.21876C11.6872 4.14895 11.701 4.07983 11.7277 4.01534C11.7544 3.95085 11.7935 3.89226 11.8429 3.8429C11.9426 3.74321 12.0778 3.68721 12.2188 3.68721C12.2886 3.68721 12.3577 3.70096 12.4222 3.72767C12.4867 3.75439 12.5453 3.79354 12.5946 3.8429L13.2813 4.5302L15.0304 2.7804C15.0798 2.73104 15.1383 2.69189 15.2028 2.66517C15.2673 2.63846 15.3364 2.62471 15.4063 2.62471C15.4761 2.62471 15.5452 2.63846 15.6097 2.66517C15.6742 2.69189 15.7328 2.73104 15.7821 2.7804C15.8315 2.82976 15.8706 2.88835 15.8973 2.95284C15.924 3.01733 15.9378 3.08645 15.9378 3.15626C15.9378 3.22606 15.924 3.29518 15.8973 3.35967C15.8706 3.42416 15.8315 3.48276 15.7821 3.53212Z" fill="white" fill-opacity="0.65"/>
</svg>
