<svg width="17" height="18" viewBox="0 0 17 18" fill="none" xmlns="http://www.w3.org/2000/svg">
<path d="M16.8871 7.66588L15.1924 4.27518C15.13 4.15038 15.0436 4.0391 14.9381 3.94769C14.8327 3.85629 14.7103 3.78655 14.5779 3.74246C14.4455 3.69837 14.3057 3.68079 14.1665 3.69073C14.0273 3.70066 13.8915 3.73792 13.7667 3.80037L12.1152 4.6258L8.63613 3.70541C8.54687 3.68218 8.45314 3.68218 8.36387 3.70541L4.88485 4.6258L3.23332 3.80037C3.10853 3.73792 2.97266 3.70066 2.83347 3.69073C2.69428 3.68079 2.5545 3.69837 2.4221 3.74246C2.28971 3.78655 2.16729 3.85629 2.06185 3.94769C1.95641 4.0391 1.87001 4.15038 1.80758 4.27518L0.112892 7.66522C0.050441 7.79001 0.0131833 7.92587 0.00324658 8.06506C-0.00669013 8.20425 0.0108888 8.34404 0.0549795 8.47643C0.0990702 8.60883 0.168809 8.73124 0.260213 8.83668C0.351618 8.94212 0.462897 9.02853 0.587697 9.09096L2.38067 9.98811L6.06555 12.6198C6.11984 12.6584 6.18088 12.6866 6.24551 12.7028L10.4955 13.7653C10.5845 13.7876 10.6778 13.7865 10.7662 13.7621C10.8547 13.7376 10.9353 13.6907 11.0002 13.6258L14.6572 9.96818L16.4116 9.09096C16.6635 8.96487 16.855 8.74393 16.944 8.47671C17.0331 8.20948 17.0124 7.91784 16.8864 7.66588H16.8871ZM13.2421 9.88186L10.957 8.0517C10.8547 7.96972 10.7256 7.9285 10.5947 7.93598C10.4637 7.94346 10.3402 7.99911 10.2478 8.09221C9.06512 9.28354 7.74695 9.13279 6.90625 8.60154L9.77766 5.81248H11.89L13.697 9.42565L13.2421 9.88186ZM2.75785 4.74998L4.11719 5.42865L2.41918 8.81869L1.0625 8.14068L2.75785 4.74998ZM10.461 12.661L6.60211 11.6967L3.33492 9.36322L5.1943 5.64447L8.5 4.76858L9.15078 4.94057L6.1625 7.84119L6.15719 7.84717C6.0447 7.95966 5.95891 8.09597 5.90614 8.24604C5.85337 8.39612 5.83498 8.55613 5.85232 8.71426C5.86965 8.8724 5.92228 9.02462 6.00631 9.1597C6.09034 9.29478 6.20363 9.40926 6.33781 9.49471C7.70313 10.3666 9.35067 10.2252 10.6482 9.16268L12.4844 10.6376L10.461 12.661ZM14.5782 8.81803L12.8835 5.43131L14.2421 4.74998L15.9375 8.14068L14.5782 8.81803ZM8.75102 14.9719C8.72232 15.0867 8.6561 15.1887 8.56286 15.2616C8.46963 15.3345 8.35472 15.3742 8.23637 15.3743C8.19272 15.3743 8.14924 15.3689 8.10688 15.3584L5.33973 14.6664C5.27501 14.6505 5.21393 14.6223 5.15977 14.5834L3.40996 13.3337C3.30237 13.2492 3.23151 13.1265 3.21214 12.991C3.19277 12.8556 3.22638 12.718 3.30597 12.6067C3.38555 12.4955 3.50499 12.4192 3.6394 12.3938C3.77382 12.3684 3.91285 12.3958 4.02754 12.4704L5.695 13.6617L8.36719 14.3284C8.50385 14.3626 8.62133 14.4497 8.69381 14.5705C8.76629 14.6913 8.78782 14.8359 8.75367 14.9726L8.75102 14.9719Z" fill="white" fill-opacity="0.65"/>
</svg>
