<svg width="17" height="18" viewBox="0 0 17 18" fill="none" xmlns="http://www.w3.org/2000/svg">
<path d="M14.8759 5.37414L11.1571 1.65539C11.1077 1.60607 11.0491 1.56697 10.9846 1.5403C10.9201 1.51364 10.851 1.49995 10.7812 1.5H4.40625C4.12446 1.5 3.85421 1.61194 3.65495 1.8112C3.45569 2.01046 3.34375 2.28071 3.34375 2.5625V14.25C3.34375 14.5318 3.45569 14.802 3.65495 15.0013C3.85421 15.2006 4.12446 15.3125 4.40625 15.3125H13.9688C14.2505 15.3125 14.5208 15.2006 14.7201 15.0013C14.9193 14.802 15.0312 14.5318 15.0312 14.25V5.75C15.0313 5.68021 15.0176 5.6111 14.9909 5.54661C14.9643 5.48212 14.9252 5.42351 14.8759 5.37414ZM11.3125 3.31355L13.2177 5.21875H11.3125V3.31355ZM13.9688 14.25H4.40625V2.5625H10.25V5.75C10.25 5.8909 10.306 6.02602 10.4056 6.12565C10.5052 6.22528 10.6404 6.28125 10.7812 6.28125H13.9688V14.25Z" fill="black" fill-opacity="0.65"/>
<path d="M13.9688 14.25H4.40625V2.5625H10.25V5.75C10.25 5.8909 10.306 6.02602 10.4056 6.12565C10.5052 6.22528 10.6404 6.28125 10.7812 6.28125H13.9688V14.25Z" fill="white"/>
<path d="M12.5321 6.96789L8.81336 3.24914C8.76399 3.19982 8.70538 3.16072 8.64089 3.13405C8.5764 3.10739 8.50729 3.0937 8.4375 3.09375H2.0625C1.78071 3.09375 1.51046 3.20569 1.3112 3.40495C1.11194 3.60421 1 3.87446 1 4.15625V15.8438C1 16.1255 1.11194 16.3958 1.3112 16.5951C1.51046 16.7943 1.78071 16.9062 2.0625 16.9062H11.625C11.9068 16.9062 12.177 16.7943 12.3763 16.5951C12.5756 16.3958 12.6875 16.1255 12.6875 15.8438V7.34375C12.6876 7.27396 12.6739 7.20485 12.6472 7.14036C12.6205 7.07587 12.5814 7.01726 12.5321 6.96789ZM8.96875 4.9073L10.8739 6.8125H8.96875V4.9073ZM11.625 15.8438H2.0625V4.15625H7.90625V7.34375C7.90625 7.48465 7.96222 7.61977 8.06185 7.7194C8.16148 7.81903 8.2966 7.875 8.4375 7.875H11.625V15.8438Z" fill="black" fill-opacity="0.65"/>
<path d="M11.625 15.8438H2.0625V4.15625H7.90625V7.34375C7.90625 7.48465 7.96222 7.61977 8.06185 7.7194C8.16148 7.81903 8.2966 7.875 8.4375 7.875H11.625V15.8438Z" fill="white"/>
</svg>
