<svg width="45" height="45" viewBox="0 0 45 45" fill="none" xmlns="http://www.w3.org/2000/svg">
<rect width="45" height="45" rx="22.5" fill="#EAEAEC"/>
<path d="M33 23C33 23.221 32.9122 23.433 32.7559 23.5893C32.5996 23.7455 32.3877 23.8333 32.1667 23.8333H23.8333V32.1667C23.8333 32.3877 23.7455 32.5996 23.5893 32.7559C23.433 32.9122 23.221 33 23 33C22.779 33 22.567 32.9122 22.4107 32.7559C22.2545 32.5996 22.1667 32.3877 22.1667 32.1667V23.8333H13.8333C13.6123 23.8333 13.4004 23.7455 13.2441 23.5893C13.0878 23.433 13 23.221 13 23C13 22.779 13.0878 22.567 13.2441 22.4107C13.4004 22.2545 13.6123 22.1667 13.8333 22.1667H22.1667V13.8333C22.1667 13.6123 22.2545 13.4004 22.4107 13.2441C22.567 13.0878 22.779 13 23 13C23.221 13 23.433 13.0878 23.5893 13.2441C23.7455 13.4004 23.8333 13.6123 23.8333 13.8333V22.1667H32.1667C32.3877 22.1667 32.5996 22.2545 32.7559 22.4107C32.9122 22.567 33 22.779 33 23Z" fill="black"/>
</svg>
