<svg width="17" height="18" viewBox="0 0 17 18" fill="none" xmlns="http://www.w3.org/2000/svg">
<path d="M14.9985 7.32789C14.7482 7.06625 14.4892 6.79664 14.3916 6.55957C14.3013 6.34242 14.2959 5.9825 14.2906 5.63387C14.2807 4.98574 14.27 4.25129 13.7594 3.74062C13.2487 3.22996 12.5143 3.21934 11.8661 3.20937C11.5175 3.20406 11.1576 3.19875 10.9404 3.10844C10.704 3.01082 10.4337 2.75184 10.1721 2.50148C9.71391 2.06121 9.19328 1.5625 8.5 1.5625C7.80672 1.5625 7.28676 2.06121 6.82789 2.50148C6.56625 2.75184 6.29664 3.01082 6.05957 3.10844C5.84375 3.19875 5.4825 3.20406 5.13387 3.20937C4.48574 3.21934 3.75129 3.22996 3.24062 3.74062C2.72996 4.25129 2.72266 4.98574 2.70937 5.63387C2.70406 5.9825 2.69875 6.34242 2.60844 6.55957C2.51082 6.79598 2.25184 7.06625 2.00148 7.32789C1.56121 7.78609 1.0625 8.30672 1.0625 9C1.0625 9.69328 1.56121 10.2132 2.00148 10.6721C2.25184 10.9337 2.51082 11.2034 2.60844 11.4404C2.69875 11.6576 2.70406 12.0175 2.70937 12.3661C2.71934 13.0143 2.72996 13.7487 3.24062 14.2594C3.75129 14.77 4.48574 14.7807 5.13387 14.7906C5.4825 14.7959 5.84242 14.8013 6.05957 14.8916C6.29598 14.9892 6.56625 15.2482 6.82789 15.4985C7.28609 15.9388 7.80672 16.4375 8.5 16.4375C9.19328 16.4375 9.71324 15.9388 10.1721 15.4985C10.4337 15.2482 10.7034 14.9892 10.9404 14.8916C11.1576 14.8013 11.5175 14.7959 11.8661 14.7906C12.5143 14.7807 13.2487 14.77 13.7594 14.2594C14.27 13.7487 14.2807 13.0143 14.2906 12.3661C14.2959 12.0175 14.3013 11.6576 14.3916 11.4404C14.4892 11.204 14.7482 10.9337 14.9985 10.6721C15.4388 10.2139 15.9375 9.69328 15.9375 9C15.9375 8.30672 15.4388 7.78676 14.9985 7.32789ZM14.2315 9.93699C13.9134 10.269 13.5841 10.6123 13.4094 11.034C13.2421 11.4391 13.2348 11.902 13.2281 12.3502C13.2215 12.815 13.2142 13.3018 13.0077 13.5077C12.8011 13.7135 12.3177 13.7215 11.8502 13.7281C11.402 13.7348 10.9391 13.7421 10.534 13.9094C10.1123 14.0841 9.76902 14.4134 9.43699 14.7315C9.10496 15.0496 8.76562 15.375 8.5 15.375C8.23438 15.375 7.89238 15.0483 7.56301 14.7315C7.23363 14.4148 6.88766 14.0841 6.46598 13.9094C6.0609 13.7421 5.59805 13.7348 5.14981 13.7281C4.68496 13.7215 4.1982 13.7142 3.99234 13.5077C3.78648 13.3011 3.77852 12.8177 3.77187 12.3502C3.76523 11.902 3.75793 11.4391 3.59059 11.034C3.41594 10.6123 3.08656 10.269 2.76848 9.93699C2.45039 9.60496 2.125 9.26562 2.125 9C2.125 8.73438 2.45172 8.39238 2.76848 8.06301C3.08523 7.73363 3.41594 7.38766 3.59059 6.96598C3.75793 6.5609 3.76523 6.09805 3.77187 5.64981C3.77852 5.18496 3.78582 4.6982 3.99234 4.49234C4.19887 4.28648 4.6823 4.27852 5.14981 4.27187C5.59805 4.26523 6.0609 4.25793 6.46598 4.09059C6.88766 3.91594 7.23098 3.58656 7.56301 3.26848C7.89504 2.95039 8.23438 2.625 8.5 2.625C8.76562 2.625 9.10762 2.95172 9.43699 3.26848C9.76637 3.58523 10.1123 3.91594 10.534 4.09059C10.9391 4.25793 11.402 4.26523 11.8502 4.27187C12.315 4.27852 12.8018 4.28582 13.0077 4.49234C13.2135 4.69887 13.2215 5.1823 13.2281 5.64981C13.2348 6.09805 13.2421 6.5609 13.4094 6.96598C13.5841 7.38766 13.9134 7.73098 14.2315 8.06301C14.5496 8.39504 14.875 8.73438 14.875 9C14.875 9.26562 14.5483 9.60762 14.2315 9.93699ZM11.5321 7.03039C11.5815 7.07973 11.6207 7.13832 11.6474 7.20281C11.6742 7.26731 11.6879 7.33644 11.6879 7.40625C11.6879 7.47606 11.6742 7.54519 11.6474 7.60969C11.6207 7.67418 11.5815 7.73277 11.5321 7.78211L7.81336 11.5009C7.76402 11.5503 7.70543 11.5894 7.64094 11.6162C7.57644 11.6429 7.50731 11.6567 7.4375 11.6567C7.36769 11.6567 7.29856 11.6429 7.23406 11.6162C7.16957 11.5894 7.11098 11.5503 7.06164 11.5009L5.46789 9.90711C5.36821 9.80743 5.3122 9.67222 5.3122 9.53125C5.3122 9.39028 5.36821 9.25507 5.46789 9.15539C5.56757 9.05571 5.70278 8.9997 5.84375 8.9997C5.98472 8.9997 6.11993 9.05571 6.21961 9.15539L7.4375 10.3739L10.7804 7.03039C10.8297 6.981 10.8883 6.94181 10.9528 6.91508C11.0173 6.88834 11.0864 6.87458 11.1562 6.87458C11.2261 6.87458 11.2952 6.88834 11.3597 6.91508C11.4242 6.94181 11.4828 6.981 11.5321 7.03039Z" fill="black" fill-opacity="0.65"/>
</svg>
