<svg width="17" height="18" viewBox="0 0 17 18" fill="none" xmlns="http://www.w3.org/2000/svg">
<path d="M15.4062 8.46875H14.8524C14.7249 6.9676 14.0707 5.55989 13.0054 4.4946C11.9401 3.4293 10.5324 2.77506 9.03125 2.64758V2.09375C9.03125 1.95285 8.97528 1.81773 8.87565 1.7181C8.77602 1.61847 8.6409 1.5625 8.5 1.5625C8.3591 1.5625 8.22398 1.61847 8.12435 1.7181C8.02472 1.81773 7.96875 1.95285 7.96875 2.09375V2.64758C6.4676 2.77506 5.05989 3.4293 3.9946 4.4946C2.9293 5.55989 2.27506 6.9676 2.14758 8.46875H1.59375C1.45285 8.46875 1.31773 8.52472 1.2181 8.62435C1.11847 8.72398 1.0625 8.8591 1.0625 9C1.0625 9.1409 1.11847 9.27602 1.2181 9.37565C1.31773 9.47528 1.45285 9.53125 1.59375 9.53125H2.14758C2.27506 11.0324 2.9293 12.4401 3.9946 13.5054C5.05989 14.5707 6.4676 15.2249 7.96875 15.3524V15.9062C7.96875 16.0471 8.02472 16.1823 8.12435 16.2819C8.22398 16.3815 8.3591 16.4375 8.5 16.4375C8.6409 16.4375 8.77602 16.3815 8.87565 16.2819C8.97528 16.1823 9.03125 16.0471 9.03125 15.9062V15.3524C10.5324 15.2249 11.9401 14.5707 13.0054 13.5054C14.0707 12.4401 14.7249 11.0324 14.8524 9.53125H15.4062C15.5471 9.53125 15.6823 9.47528 15.7819 9.37565C15.8815 9.27602 15.9375 9.1409 15.9375 9C15.9375 8.8591 15.8815 8.72398 15.7819 8.62435C15.6823 8.52472 15.5471 8.46875 15.4062 8.46875ZM9.03125 14.2859V13.7812C9.03125 13.6404 8.97528 13.5052 8.87565 13.4056C8.77602 13.306 8.6409 13.25 8.5 13.25C8.3591 13.25 8.22398 13.306 8.12435 13.4056C8.02472 13.5052 7.96875 13.6404 7.96875 13.7812V14.2859C6.75011 14.1616 5.61166 13.6207 4.74548 12.7545C3.8793 11.8883 3.33841 10.7499 3.21406 9.53125H3.71875C3.85965 9.53125 3.99477 9.47528 4.0944 9.37565C4.19403 9.27602 4.25 9.1409 4.25 9C4.25 8.8591 4.19403 8.72398 4.0944 8.62435C3.99477 8.52472 3.85965 8.46875 3.71875 8.46875H3.21406C3.33841 7.25011 3.8793 6.11166 4.74548 5.24548C5.61166 4.3793 6.75011 3.83841 7.96875 3.71406V4.21875C7.96875 4.35965 8.02472 4.49477 8.12435 4.5944C8.22398 4.69403 8.3591 4.75 8.5 4.75C8.6409 4.75 8.77602 4.69403 8.87565 4.5944C8.97528 4.49477 9.03125 4.35965 9.03125 4.21875V3.71406C10.2499 3.83841 11.3883 4.3793 12.2545 5.24548C13.1207 6.11166 13.6616 7.25011 13.7859 8.46875H13.2812C13.1404 8.46875 13.0052 8.52472 12.9056 8.62435C12.806 8.72398 12.75 8.8591 12.75 9C12.75 9.1409 12.806 9.27602 12.9056 9.37565C13.0052 9.47528 13.1404 9.53125 13.2812 9.53125H13.7859C13.6616 10.7499 13.1207 11.8883 12.2545 12.7545C11.3883 13.6207 10.2499 14.1616 9.03125 14.2859ZM8.5 6.34375C7.97464 6.34375 7.46108 6.49954 7.02427 6.79141C6.58745 7.08328 6.24699 7.49813 6.04594 7.9835C5.8449 8.46886 5.7923 9.00295 5.89479 9.51821C5.99728 10.0335 6.25026 10.5068 6.62175 10.8783C6.99323 11.2497 7.46653 11.5027 7.98179 11.6052C8.49705 11.7077 9.03114 11.6551 9.5165 11.4541C10.0019 11.253 10.4167 10.9126 10.7086 10.4757C11.0005 10.0389 11.1562 9.52536 11.1562 9C11.1562 8.29552 10.8764 7.61989 10.3783 7.12175C9.88011 6.6236 9.20448 6.34375 8.5 6.34375ZM8.5 10.5938C8.18479 10.5938 7.87665 10.5003 7.61456 10.3252C7.35247 10.15 7.14819 9.90112 7.02757 9.6099C6.90694 9.31868 6.87538 8.99823 6.93687 8.68907C6.99837 8.37992 7.15016 8.09594 7.37305 7.87305C7.59594 7.65016 7.87992 7.49837 8.18907 7.43687C8.49823 7.37538 8.81868 7.40694 9.1099 7.52757C9.40112 7.64819 9.65003 7.85247 9.82516 8.11456C10.0003 8.37665 10.0938 8.68479 10.0938 9C10.0938 9.42269 9.92584 9.82807 9.62695 10.127C9.32807 10.4258 8.92269 10.5938 8.5 10.5938Z" fill="black" fill-opacity="0.65"/>
</svg>
