<svg width="17" height="18" viewBox="0 0 17 18" fill="none" xmlns="http://www.w3.org/2000/svg">
<path d="M9.03122 5.81245V8.69913L11.4298 10.1382C11.5506 10.2107 11.6377 10.3283 11.6718 10.465C11.7059 10.6018 11.6843 10.7465 11.6118 10.8673C11.5392 10.9881 11.4216 11.0752 11.2849 11.1093C11.1481 11.1434 11.0034 11.1218 10.8826 11.0493L8.22638 9.4555C8.14776 9.40827 8.08271 9.34149 8.03756 9.26166C7.99241 9.18183 7.96869 9.09167 7.96872 8.99995V5.81245C7.96872 5.67156 8.02469 5.53643 8.12432 5.4368C8.22395 5.33717 8.35907 5.2812 8.49997 5.2812C8.64087 5.2812 8.77599 5.33717 8.87562 5.4368C8.97525 5.53643 9.03122 5.67156 9.03122 5.81245ZM14.875 4.2187C14.7341 4.2187 14.5989 4.27467 14.4993 4.3743C14.3997 4.47393 14.3437 4.60906 14.3437 4.74995V5.94527C13.922 5.45652 13.4917 4.9857 13.0076 4.49562C12.1217 3.60956 10.9942 3.00424 9.76622 2.75528C8.5382 2.50632 7.26405 2.62477 6.10296 3.09582C4.94187 3.56687 3.94535 4.36964 3.2379 5.40382C2.53044 6.438 2.14344 7.65772 2.12525 8.91059C2.10705 10.1635 2.45846 11.3939 3.13558 12.4482C3.8127 13.5025 4.78549 14.3339 5.93241 14.8384C7.07932 15.343 8.3495 15.4984 9.58424 15.2852C10.819 15.072 11.9635 14.4997 12.8748 13.6398C12.9256 13.5918 12.9664 13.5343 12.9949 13.4706C13.0234 13.4068 13.0392 13.3381 13.0411 13.2683C13.0431 13.1985 13.0313 13.129 13.0064 13.0637C12.9815 12.9985 12.944 12.9388 12.8961 12.888C12.8481 12.8373 12.7906 12.7965 12.7269 12.7679C12.6631 12.7394 12.5944 12.7237 12.5246 12.7217C12.4548 12.7198 12.3853 12.7316 12.32 12.7564C12.2548 12.7813 12.1951 12.8188 12.1443 12.8668C11.3847 13.5827 10.431 14.059 9.40225 14.2361C8.37354 14.4132 7.31545 14.2833 6.3601 13.8627C5.40476 13.4421 4.5945 12.7493 4.03051 11.871C3.46651 10.9926 3.17378 9.96755 3.18887 8.92382C3.20396 7.88008 3.5262 6.86392 4.11535 6.00223C4.70449 5.14053 5.53444 4.4715 6.50154 4.07866C7.46865 3.68583 8.53005 3.58661 9.55321 3.79339C10.5764 4.00017 11.5159 4.50379 12.2546 5.24136C12.7951 5.78855 13.2686 6.31581 13.7461 6.87495H12.2187C12.0778 6.87495 11.9427 6.93092 11.8431 7.03055C11.7434 7.13018 11.6875 7.26531 11.6875 7.4062C11.6875 7.5471 11.7434 7.68223 11.8431 7.78185C11.9427 7.88148 12.0778 7.93745 12.2187 7.93745H14.875C15.0159 7.93745 15.151 7.88148 15.2506 7.78185C15.3502 7.68223 15.4062 7.5471 15.4062 7.4062V4.74995C15.4062 4.60906 15.3502 4.47393 15.2506 4.3743C15.151 4.27467 15.0159 4.2187 14.875 4.2187Z" fill="black" fill-opacity="0.65"/>
</svg>
