<svg width="17" height="18" viewBox="0 0 17 18" fill="none" xmlns="http://www.w3.org/2000/svg">
<path d="M14.875 3.68747V6.87497C14.875 7.01587 14.819 7.15099 14.7194 7.25062C14.6198 7.35025 14.4846 7.40622 14.3438 7.40622H11.1562C11.0154 7.40622 10.8802 7.35025 10.7806 7.25062C10.681 7.15099 10.625 7.01587 10.625 6.87497C10.625 6.73408 10.681 6.59895 10.7806 6.49932C10.8802 6.39969 11.0154 6.34372 11.1562 6.34372H13.0614L12.0899 5.3722C11.1026 4.38036 9.76203 3.82079 8.36254 3.8163H8.33266C6.94488 3.81305 5.61161 4.35623 4.62121 5.32837C4.51976 5.42308 4.38526 5.47432 4.24651 5.47114C4.10776 5.46796 3.97576 5.4106 3.87875 5.31134C3.78174 5.21208 3.72744 5.0788 3.72744 4.94C3.72745 4.80121 3.78177 4.66793 3.87879 4.56868C5.0791 3.39555 6.69363 2.7431 8.37199 2.75292C10.0504 2.76274 11.6571 3.43404 12.8436 4.62114L13.8125 5.59267V3.68747C13.8125 3.54658 13.8685 3.41145 13.9681 3.31182C14.0677 3.21219 14.2029 3.15622 14.3438 3.15622C14.4846 3.15622 14.6198 3.21219 14.7194 3.31182C14.819 3.41145 14.875 3.54658 14.875 3.68747ZM12.3788 12.6716C11.3786 13.6486 10.0336 14.1919 8.63543 14.1837C7.23728 14.1755 5.89873 13.6164 4.91008 12.6277L3.93855 11.6562H5.84375C5.98465 11.6562 6.11977 11.6003 6.2194 11.5006C6.31903 11.401 6.375 11.2659 6.375 11.125C6.375 10.9841 6.31903 10.849 6.2194 10.7493C6.11977 10.6497 5.98465 10.5937 5.84375 10.5937H2.65625C2.51535 10.5937 2.38023 10.6497 2.2806 10.7493C2.18097 10.849 2.125 10.9841 2.125 11.125V14.3125C2.125 14.4534 2.18097 14.5885 2.2806 14.6881C2.38023 14.7878 2.51535 14.8437 2.65625 14.8437C2.79715 14.8437 2.93227 14.7878 3.0319 14.6881C3.13153 14.5885 3.1875 14.4534 3.1875 14.3125V12.4073L4.15902 13.3788C5.34385 14.5696 6.953 15.2412 8.63281 15.2461H8.66801C10.3335 15.2504 11.9337 14.5984 13.1219 13.4313C13.2189 13.332 13.2732 13.1987 13.2732 13.0599C13.2732 12.9211 13.2189 12.7879 13.1219 12.6886C13.0249 12.5893 12.8929 12.532 12.7542 12.5288C12.6154 12.5256 12.4809 12.5769 12.3795 12.6716H12.3788Z" fill="white" fill-opacity="0.65"/>
</svg>
